HIERARCHY
ROOT Hips
{
	OFFSET	0.000000	0.000000	0.000000
	CHANNELS 6 Xposition Yposition Zposition Zrotation Xrotation Yrotation
	JOINT LeftUpLeg
	{
		OFFSET	12.811937	-7.635976	0.557276
		CHANNELS 3 Zrotation Xrotation Yrotation
		JOINT LeftLeg
		{
			OFFSET	-0.429270	-42.206159	-1.204951
			CHANNELS 3 Zrotation Xrotation Yrotation
			JOINT LeftFoot
			{
				OFFSET	-2.112259	-42.464481	-3.973220
				CHANNELS 3 Zrotation Xrotation Yrotation
				JOINT LeftFootHeel
				{
					OFFSET	0.387196	-5.329707	-3.419729
					CHANNELS 3 Zrotation Xrotation Yrotation
					End Site
					{
						OFFSET	0.327567	-0.000003	16.505428
					}
				}
			}
		}
	}
	JOINT RightUpLeg
	{
		OFFSET	-12.811937	-7.635976	0.557276
		CHANNELS 3 Zrotation Xrotation Yrotation
		JOINT RightLeg
		{
			OFFSET	0.429270	-42.206159	-1.204951
			CHANNELS 3 Zrotation Xrotation Yrotation
			JOINT RightFoot
			{
				OFFSET	2.112259	-42.464481	-3.973220
				CHANNELS 3 Zrotation Xrotation Yrotation
				JOINT RightFootHeel
				{
					OFFSET	-0.387198	-5.329707	-3.419729
					CHANNELS 3 Zrotation Xrotation Yrotation
					End Site
					{
						OFFSET	-0.327566	-0.000003	16.505428
					}
				}
			}
		}
	}
	JOINT Spine
	{
		OFFSET	0.000000	13.731315	-1.007646
		CHANNELS 3 Zrotation Xrotation Yrotation
		JOINT Spine1
		{
			OFFSET	0.000000	12.091746	-0.604589
			CHANNELS 3 Zrotation Xrotation Yrotation
			JOINT LeftShoulder
			{
				OFFSET	5.746115	20.990027	-0.833816
				CHANNELS 3 Zrotation Xrotation Yrotation
				JOINT LeftArm
				{
					OFFSET	10.881538	-1.359258	0.219250
					CHANNELS 3 Zrotation Xrotation Yrotation
					JOINT LeftForeArm
					{
						OFFSET	4.390314	-31.537147	0.202818
						CHANNELS 3 Zrotation Xrotation Yrotation
						JOINT LeftHand
						{
							OFFSET	3.168650	-24.865023	5.373370
							CHANNELS 3 Zrotation Xrotation Yrotation
							End Site
							{
								OFFSET	1.457528	-10.806075	2.170267
							}
						}
					}
				}
			}
			JOINT RightShoulder
			{
				OFFSET	-5.746115	20.990027	-0.833816
				CHANNELS 3 Zrotation Xrotation Yrotation
				JOINT RightArm
				{
					OFFSET	-10.881538	-1.359258	0.219250
					CHANNELS 3 Zrotation Xrotation Yrotation
					JOINT RightForeArm
					{
						OFFSET	-4.390314	-31.537147	0.202818
						CHANNELS 3 Zrotation Xrotation Yrotation
						JOINT RightHand
						{
							OFFSET	-3.168650	-24.865023	5.373370
							CHANNELS 3 Zrotation Xrotation Yrotation
							End Site
							{
								OFFSET	-1.457528	-10.806075	2.170267
							}
						}
					}
				}
			}
			JOINT Neck
			{
				OFFSET	0.000000	27.075639	0.680489
				CHANNELS 3 Zrotation Xrotation Yrotation
				JOINT Head
				{
					OFFSET	0.000000	12.391287	1.239129
					CHANNELS 3 Zrotation Xrotation Yrotation
					End Site
					{
						OFFSET	0.000000	13.818691	-0.105853
					}
				}
			}
		}
	}
}
MOTION
Frames:    18
Frame Time: 0.016667
8.233875	99.237313	-2.790980	1.957114	-10.223556	-1.780037	-6.740552	8.495179	-0.068996	-0.652178	1.943247	3.310684	1.508092	0.190791	-7.934675	0.	0.	0.	-8.930656	-2.607613	-8.633981	-7.353033	24.933725	12.059662	9.284696	-12.160084	4.005371	0.	0.	0.	-0.000000	-0.000001	0.000001	-3.757154	16.187725	-8.872975	1.736452	0.018338	-4.940273	2.984354	-6.591225	-5.133043	1.988481	-0.143854	-5.068044	10.968438	-2.628803	-19.532791	2.036263	2.487313	-1.762778	-0.933686	-7.879990	-4.117632	1.432297	-3.239262	12.437922	-10.604679	-0.564343	14.173107	0.460465	-4.683418	-2.248056	-0.120794	-4.622770	-0.531684	
8.107211	99.209805	-2.752165	2.167672	-10.315356	-1.444633	-6.832181	8.590817	-0.239301	-0.654674	1.975505	3.288987	1.462053	0.193071	-8.041081	0.	0.	0.	-9.074408	-2.554714	-8.638484	-7.335232	25.130363	11.883797	9.348281	-12.288656	3.927673	0.	0.	0.	0.000000	-0.000001	0.000001	-4.031761	16.254423	-8.855409	1.856286	0.025126	-5.125790	2.967015	-6.692004	-4.901947	1.952219	-0.195072	-5.119126	11.058521	-2.642504	-19.534996	2.045341	2.424220	-1.815790	-0.896921	-7.745192	-4.095697	1.415595	-3.198309	12.164851	-10.344995	-0.514064	14.754374	0.493189	-4.626590	-2.324643	0.056967	-4.678970	-0.769794	
8.012516	99.194021	-2.751291	2.362264	-10.401511	-1.145470	-6.928412	8.643307	-0.132461	-0.621672	2.043258	3.129932	1.278636	0.217704	-8.247204	0.	0.	0.	-9.306108	-2.588368	-8.187822	-7.207681	25.578129	11.490585	9.520010	-12.632586	3.694670	0.	0.	0.	-0.000000	0.000000	0.000002	-4.318715	16.308729	-8.784597	1.803975	-0.071187	-5.075119	3.074690	-6.673605	-4.849331	1.905963	-0.287848	-5.139971	11.151317	-2.643882	-19.422497	2.067488	2.386490	-1.836084	-0.872477	-7.664124	-4.088890	1.367360	-3.105224	11.971017	-9.915479	-0.423052	15.384460	0.567442	-4.609626	-2.400795	0.188850	-4.653094	-1.007955	
7.880472	99.180262	-2.737482	2.499914	-10.436553	-1.004055	-6.965015	8.680024	-0.131089	-0.616247	2.057703	3.100169	1.225881	0.228307	-8.345310	0.	0.	0.	-9.437452	-2.585595	-8.163838	-7.153308	25.702024	11.426632	9.572795	-12.727541	3.635603	0.	0.	0.	0.000000	0.000000	0.000001	-4.465075	16.326075	-8.737126	1.832009	-0.085180	-5.092342	3.085919	-6.696631	-4.765811	1.880912	-0.346839	-5.152645	11.188416	-2.642133	-19.331036	2.083902	2.370687	-1.841673	-0.869792	-7.633825	-4.089637	1.336098	-3.050545	11.906203	-9.634418	-0.361973	15.701393	0.617618	-4.608885	-2.439681	0.262242	-4.653667	-1.136391	
7.742781	99.170912	-2.721672	2.677910	-10.481007	-0.744280	-7.026114	8.736512	-0.111601	-0.591375	2.049555	3.037502	1.128262	0.291858	-8.515951	0.	0.	0.	-9.556746	-2.546179	-8.131618	-7.158075	25.843515	11.286925	9.670025	-12.887847	3.547290	0.	0.	0.	-0.000000	-0.000000	0.000001	-4.835602	16.277941	-8.448921	1.956141	-0.048708	-5.261292	3.116555	-6.734553	-4.611146	1.829837	-0.491646	-5.184899	11.243516	-2.635799	-19.136921	2.192806	2.399066	-1.992703	-0.876959	-7.590453	-4.089785	1.264450	-2.941759	11.845748	-8.992048	-0.167469	16.186605	0.662252	-4.569572	-2.519694	0.506456	-4.641211	-1.514036	
7.594043	99.163732	-2.667653	2.845513	-10.453854	-0.409166	-7.053982	8.751350	-0.309325	-0.581083	2.021360	3.116328	1.084505	0.335756	-8.708447	0.	0.	0.	-9.661421	-2.528539	-8.334607	-7.148582	25.886181	11.214652	9.696856	-12.955884	3.514268	0.	0.	0.	-0.000000	-0.000001	0.000002	-5.010655	16.191347	-8.435851	2.028244	-0.000154	-5.414267	3.045900	-6.866224	-4.111964	1.732601	-0.758793	-5.258692	11.299906	-2.657710	-18.930882	2.045745	2.321913	-1.830477	-0.905021	-7.543906	-4.042834	1.133739	-2.792676	11.852089	-8.172099	0.224398	16.480505	0.617658	-4.537569	-2.539308	0.671134	-4.797831	-1.711804	
7.464942	99.184603	-2.631628	2.946775	-10.428002	-0.199799	-7.022019	8.787233	-0.051509	-0.562330	1.947725	3.052798	0.938388	0.457889	-9.070644	0.	0.	0.	-9.725646	-2.426682	-8.166418	-7.046183	25.846193	10.876140	9.776109	-13.126929	3.461618	0.	0.	0.	-0.000000	0.000001	-0.000001	-5.164246	16.108027	-8.307985	1.831232	-0.115102	-5.109700	3.244351	-6.756321	-4.308267	1.666539	-0.934945	-5.312185	11.358723	-2.696313	-18.863085	2.028475	2.292843	-1.807636	-0.920646	-7.512510	-3.960329	1.025920	-2.723392	11.867296	-7.912644	0.427997	16.575649	0.616738	-4.579255	-2.539197	0.758683	-4.953011	-1.807356	
7.315812	99.178286	-2.607767	3.033615	-10.415465	-0.098648	-7.005342	8.787162	-0.154802	-0.562330	1.947725	3.052798	0.938388	0.457889	-9.070644	0.	0.	0.	-9.729065	-2.421919	-8.268480	-7.046181	25.846189	10.876142	9.775835	-13.153283	3.454160	0.	0.	0.	0.000000	0.000001	0.000001	-5.240736	16.073933	-8.243381	1.835735	-0.123825	-5.102854	3.227718	-6.792412	-4.054966	1.612215	-1.087087	-5.376853	11.429852	-2.639920	-19.033752	2.028567	2.272422	-1.792416	-0.924042	-7.498036	-3.911671	0.849838	-2.728385	12.120727	-7.754735	0.535840	16.380932	0.624137	-4.607360	-2.533946	0.798899	-4.991655	-1.867969	
7.197819	99.188838	-2.581846	3.118430	-10.378040	0.202338	-6.977211	8.745076	-0.055892	-0.518128	1.980797	2.805492	0.900094	0.506626	-9.230310	0.	0.	0.	-9.750676	-2.229939	-8.182998	-6.906322	25.653240	10.478249	9.875625	-13.126596	3.420317	0.	0.	0.	0.000000	0.000001	-0.000001	-5.436455	15.984137	-8.057316	1.824340	-0.154462	-5.093245	3.343959	-6.730295	-4.115069	1.577528	-1.205030	-5.427406	11.436375	-2.785815	-18.775198	2.017514	2.209025	-1.758137	-0.927005	-7.478242	-3.771991	0.810950	-2.641172	11.998049	-8.052687	0.620893	16.684366	0.608298	-4.708351	-2.512334	0.928235	-5.012118	-2.113337	
7.059938	99.195165	-2.536075	3.221849	-10.352182	0.408826	-6.964470	8.740349	-0.086288	-0.503818	1.985337	2.711043	0.830547	0.557227	-9.307695	0.	0.	0.	-9.777686	-2.138155	-8.152638	-6.785171	25.592823	10.214388	9.955633	-13.122746	3.434875	0.	0.	0.	-0.000000	0.000000	-0.000000	-5.536860	15.931287	-7.956169	1.782090	-0.175638	-5.085670	3.383475	-6.701836	-4.038113	1.563425	-1.288697	-5.452579	11.417486	-2.827587	-18.742516	1.978765	2.172635	-1.736233	-0.930501	-7.493069	-3.687957	0.694869	-2.599638	12.154372	-8.240593	0.612439	16.618534	0.564319	-4.795604	-2.486968	0.975560	-5.117348	-2.171327	
6.917598	99.186667	-2.503030	3.365776	-10.327179	0.604871	-6.998958	8.724122	-0.105392	-0.484329	1.999865	2.642987	0.790211	0.590811	-9.400648	0.	0.	0.	-9.840118	-2.065464	-8.086346	-6.676448	25.541229	9.940975	10.063454	-13.113850	3.455184	0.	0.	0.	-0.000000	0.000001	0.000000	-5.670016	15.923327	-7.854721	1.746718	-0.226376	-5.068652	3.403290	-6.658505	-3.984299	1.546616	-1.358264	-5.458251	11.421154	-2.872390	-18.710030	1.949878	2.101453	-1.709541	-0.945272	-7.518929	-3.589111	0.616387	-2.587924	12.401572	-8.431175	0.588459	16.429750	0.523121	-4.930965	-2.462452	1.005751	-5.238193	-2.195451	
6.765659	99.174836	-2.477758	3.487593	-10.314211	0.704920	-7.018106	8.723096	-0.201275	-0.484328	1.999865	2.642987	0.774281	0.605184	-9.396522	0.	0.	0.	-9.877225	-2.061778	-8.181115	-6.676448	25.541229	9.940974	10.106332	-13.114597	3.465079	0.	0.	0.	0.000000	0.000002	-0.000001	-5.746100	15.926239	-7.811067	1.738936	-0.250675	-5.056245	3.406318	-6.645729	-3.964808	1.536687	-1.375632	-5.455868	11.437571	-2.873799	-18.690878	1.944551	2.062366	-1.691362	-0.956195	-7.532230	-3.535123	0.588979	-2.590210	12.587513	-8.509624	0.573455	16.257753	0.506074	-5.000924	-2.445383	1.015906	-5.309669	-2.199252	
6.605045	99.157483	-2.398981	3.672464	-10.277646	0.986101	-7.066312	8.741409	-0.273999	-0.477941	1.979975	2.531583	0.740862	0.622585	-9.472964	0.	0.	0.	-9.979181	-1.985330	-8.091632	-6.540891	25.487894	9.565985	10.212749	-13.090284	3.453754	0.	0.	0.	-0.000000	-0.000001	0.000000	-5.955210	15.934093	-7.688375	1.776573	-0.293703	-5.138764	3.403879	-6.628259	-3.930880	1.542030	-1.362784	-5.437836	11.457107	-2.881961	-18.669153	1.925250	1.970085	-1.630819	-0.990666	-7.576325	-3.338875	0.522849	-2.626943	12.926212	-8.731513	0.591145	16.041628	0.470811	-5.209019	-2.345556	0.997779	-5.556721	-2.211903	
6.453963	99.142406	-2.379139	3.786677	-10.283886	1.062155	-7.078465	8.766215	-0.256370	-0.473982	1.970953	2.501261	0.726341	0.621516	-9.524491	0.	0.	0.	-10.012399	-1.983766	-7.948936	-6.463193	25.513187	9.348912	10.267186	-13.062891	3.437965	0.	0.	0.	0.000000	-0.000001	-0.000000	-6.004110	15.950157	-7.641449	1.683372	-0.329896	-4.994589	3.394905	-6.615213	-3.891244	1.596070	-1.323508	-5.581664	11.449248	-2.841648	-18.496782	1.908726	1.947504	-1.610797	-0.999758	-7.590021	-3.263229	0.520029	-2.657222	12.997175	-8.810093	0.632646	16.055202	0.446253	-5.280087	-2.315923	0.983026	-5.641654	-2.197325	
6.300229	99.124219	-2.357007	3.944902	-10.307221	1.264892	-7.114772	8.826756	-0.325194	-0.473244	1.924667	2.454101	0.695603	0.652927	-9.576555	0.	0.	0.	-10.113698	-1.973191	-7.829547	-6.331313	25.622133	9.036751	10.321414	-13.037577	3.442122	0.	0.	0.	0.000000	-0.000001	0.000001	-6.070289	15.986819	-7.509244	1.564942	-0.356667	-4.943765	3.347175	-6.606359	-3.829198	1.628683	-1.241575	-5.536750	11.485933	-2.794893	-18.488836	1.805533	1.899852	-1.560951	-1.019100	-7.630585	-3.067420	0.545516	-2.709737	13.205899	-9.066647	0.693598	16.229555	0.280147	-5.469285	-2.259359	0.936193	-5.920970	-2.117899	
6.149502	99.109240	-2.342549	4.053551	-10.299183	1.325801	-7.126585	8.826330	-0.383548	-0.473244	1.924666	2.454101	0.695603	0.652926	-9.576555	0.	0.	0.	-10.136450	-1.970593	-7.887188	-6.347355	25.641817	9.045316	10.333202	-13.052614	3.446352	0.	0.	0.	-0.000000	0.000001	0.000000	-6.101207	15.984996	-7.462970	1.542596	-0.361348	-4.925817	3.320986	-6.590315	-3.815299	1.610848	-1.171372	-5.368519	11.523767	-2.851511	-18.621809	1.788792	1.887464	-1.544092	-1.024870	-7.642394	-3.028474	0.556765	-2.716248	13.289702	-9.144712	0.696841	16.290224	0.241117	-5.537076	-2.230398	0.911592	-6.009061	-2.095469	
5.998761	99.091818	-2.343464	4.215153	-10.334601	1.539543	-7.164527	8.899856	-0.467502	-0.482970	1.843797	2.340771	0.676262	0.720196	-9.556311	0.	0.	0.	-10.237697	-1.935556	-7.844989	-6.280109	25.781340	8.824518	10.377277	-13.134106	3.455177	0.	0.	0.	-0.000001	0.000002	0.000001	-6.221438	16.048201	-7.355685	1.512908	-0.370035	-4.862228	3.255997	-6.565657	-3.803369	1.657960	-1.002935	-5.345738	11.497387	-2.847539	-18.575146	1.772724	1.859314	-1.482398	-0.993520	-7.665028	-2.939821	0.518028	-2.722511	13.513343	-9.335210	0.720972	16.442169	0.138696	-5.745259	-2.102566	0.845234	-6.264599	-2.051764	
5.853345	99.081829	-2.354441	4.330732	-10.353290	1.620900	-7.177546	8.936598	-0.463232	-0.489328	1.790981	2.261867	0.659120	0.781692	-9.547256	0.	0.	0.	-10.259215	-1.919658	-7.790389	-6.250483	25.835556	8.698077	10.392093	-13.161475	3.458154	0.	0.	0.	0.000000	-0.000003	0.000002	-6.239379	16.073126	-7.335014	1.485816	-0.370350	-4.840640	3.236814	-6.546505	-3.806038	1.672065	-0.954864	-5.339023	11.479081	-2.843249	-18.576235	1.749193	1.856543	-1.460875	-0.979952	-7.671341	-2.920774	0.492513	-2.712495	13.551530	-9.384459	0.720729	16.501253	0.079226	-5.812334	-2.060832	0.821871	-6.346178	-2.036105	
